<svg width="1320" height="161" viewBox="0 0 1320 161" fill="none" xmlns="http://www.w3.org/2000/svg">
<g style="mix-blend-mode:overlay">
<path d="M40.8093 171.106H0V4.91726H99.0519C107.476 4.06739 115.985 5.02485 124.009 7.72601C132.033 10.4272 139.386 14.8093 145.576 20.5791C151.766 26.3489 156.65 33.3736 159.901 41.1817C163.152 48.9897 164.695 57.4011 164.426 65.853C164.99 74.4668 163.666 83.0997 160.546 91.1499C157.425 99.2 152.584 106.474 146.36 112.464C140.136 118.453 132.679 123.015 124.508 125.831C116.338 128.647 107.65 129.65 99.0519 128.768H39.6208L40.8093 171.106ZM100.24 94.3426C114.306 94.3426 123.221 84.846 123.221 66.4465C123.221 48.047 114.504 39.342 100.24 39.342H40.8093V94.3426H100.24Z" fill="white" fill-opacity="0.4"/>
<path d="M442.236 0.711182C505.629 0.711182 538.515 30.9812 538.515 87.7625C538.515 144.544 505.629 175.012 442.236 175.012H278.404C214.813 175.012 182.126 144.742 182.126 87.7625C182.126 30.7834 214.813 0.711182 278.404 0.711182H442.236ZM435.104 139.202C474.725 139.202 496.517 120.605 496.517 87.169C496.517 53.7333 475.518 35.5319 435.104 35.5319H285.338C245.717 35.5319 224.124 53.9312 224.124 87.169C224.124 120.407 245.123 139.202 285.338 139.202H435.104Z" fill="white" fill-opacity="0.4"/>
<path d="M595.708 123.869V170.956H556.088V4.7666H667.62C707.241 4.7666 732.995 28.7054 732.995 63.1303C733.538 73.3025 731.322 83.4329 726.58 92.4519C721.838 101.471 714.746 109.044 706.052 114.372L735.57 170.164H689.213L664.054 123.077L595.708 123.869ZM666.828 89.4439C670.113 89.5341 673.379 88.9071 676.396 87.6066C679.414 86.3061 682.111 84.3633 684.3 81.9142C686.488 79.4651 688.114 76.5688 689.066 73.427C690.017 70.2852 690.27 66.9735 689.808 63.7238C690.187 60.5463 689.867 57.3247 688.869 54.2838C687.872 51.2429 686.22 48.4564 684.031 46.1196C681.842 43.7827 679.169 41.9518 676.197 40.7551C673.225 39.5583 670.028 39.0246 666.828 39.1913H595.708V89.4439H666.828Z" fill="white" fill-opacity="0.4"/>
<path d="M921.135 39.1913H856.949V170.956H817.328V39.1913H753.143V4.7666H921.927L921.135 39.1913Z" fill="white" fill-opacity="0.4"/>
<path d="M996.158 143.059L981.895 170.956H939.5L1025.28 4.7666H1069.85L1158.21 170.956H1115.22L1100.56 143.059H996.158ZM1048.06 44.1374L1013.39 109.624H1083.13L1048.06 44.1374Z" fill="white" fill-opacity="0.4"/>
<path d="M1320 170.956H1175.78V4.7666H1215.4V135.739H1319.21L1320 170.956Z" fill="white" fill-opacity="0.4"/>
<g style="mix-blend-mode:overlay" opacity="0.6">
<path d="M312.714 73.7506C312.983 72.1785 315.241 72.1785 315.51 73.7506L317.976 88.1467C318.034 88.4801 318.208 88.7822 318.468 88.9983L329.702 98.3321C330.929 99.3514 329.8 101.307 328.304 100.754L314.604 95.6915C314.287 95.5743 313.938 95.5743 313.62 95.6915L299.92 100.754C298.424 101.307 297.295 99.3514 298.522 98.3321L309.756 88.9983C310.016 88.7822 310.191 88.4801 310.248 88.1467L312.714 73.7506Z" fill="white"/>
<path d="M359.986 71.0928C360.247 69.5088 362.525 69.5088 362.786 71.0928L364.631 82.2966C364.73 82.8967 365.2 83.367 365.8 83.4658L377.004 85.3112C378.588 85.5721 378.588 87.8498 377.004 88.1107L365.8 89.9561C365.2 90.055 364.73 90.5253 364.631 91.1253L362.786 102.329C362.525 103.913 360.247 103.913 359.986 102.329L358.141 91.1253C358.042 90.5253 357.572 90.055 356.972 89.9561L345.768 88.1107C344.184 87.8498 344.184 85.5721 345.768 85.3112L356.972 83.4658C357.572 83.367 358.042 82.8967 358.141 82.2966L359.986 71.0928Z" fill="white"/>
<path d="M406.859 72.1618C407.119 72.0538 407.412 72.0538 407.673 72.1618L417.266 76.1353C417.526 76.2433 417.734 76.4504 417.842 76.7111L421.815 86.3039C421.923 86.5646 421.923 86.8575 421.815 87.1182L417.842 96.7109C417.734 96.9716 417.526 97.1788 417.266 97.2867L407.673 101.26C407.412 101.368 407.119 101.368 406.859 101.26L397.266 97.2867C397.005 97.1788 396.798 96.9716 396.69 96.7109L392.717 87.1182C392.609 86.8575 392.609 86.5646 392.717 86.3039L396.69 76.7111C396.798 76.4504 397.005 76.2433 397.266 76.1353L406.859 72.1618Z" fill="white"/>
</g>
</g>
</svg>
