<svg width="298" height="115" viewBox="0 0 298 115" fill="none" xmlns="http://www.w3.org/2000/svg">
<path d="M35.0467 26.5711C35.6881 22.8266 41.066 22.8266 41.7075 26.5711L47.5813 60.8608C47.7174 61.6549 48.1327 62.3743 48.7525 62.8892L75.5113 85.121C78.4334 87.5488 75.7445 92.2062 72.1809 90.8894L39.5482 78.8315C38.7924 78.5522 37.9617 78.5522 37.206 78.8315L4.57326 90.8894C1.00969 92.2062 -1.67926 87.5488 1.24287 85.121L28.0017 62.8892C28.6214 62.3743 29.0368 61.6549 29.1728 60.8608L35.0467 26.5711Z" fill="white"/>
<path d="M148.861 20.2408C149.483 16.4678 154.908 16.4678 155.529 20.2407L159.925 46.9268C160.16 48.356 161.281 49.4762 162.71 49.7116L189.396 54.1072C193.169 54.7287 193.169 60.1537 189.396 60.7751L162.71 65.1708C161.281 65.4062 160.16 66.5264 159.925 67.9556L155.529 94.6416C154.908 98.4146 149.483 98.4146 148.861 94.6416L144.466 67.9556C144.23 66.5264 143.11 65.4062 141.681 65.1708L114.995 60.7751C111.222 60.1537 111.222 54.7287 114.995 54.1072L141.681 49.7116C143.11 49.4762 144.23 48.356 144.466 46.9268L148.861 20.2408Z" fill="white"/>
<path d="M261.723 22.7868C262.344 22.5296 263.041 22.5296 263.662 22.7868L286.511 32.2511C287.132 32.5083 287.625 33.0016 287.883 33.6226L297.347 56.4714C297.604 57.0923 297.604 57.79 297.347 58.4109L287.883 81.2597C287.625 81.8806 287.132 82.374 286.511 82.6312L263.662 92.0955C263.041 92.3527 262.344 92.3527 261.723 92.0955L238.874 82.6312C238.253 82.374 237.76 81.8806 237.502 81.2597L228.038 58.4109C227.781 57.79 227.781 57.0923 228.038 56.4714L237.502 33.6226C237.76 33.0016 238.253 32.5083 238.874 32.2511L261.723 22.7868Z" fill="white"/>
</svg>
