<svg width="376" height="50" viewBox="0 0 376 50" fill="none" xmlns="http://www.w3.org/2000/svg">
<path d="M11.6112 48.4815H0V1.19672H28.1826C30.5796 0.954913 33.0006 1.22734 35.2835 1.99588C37.5664 2.76443 39.6586 4.01125 41.4198 5.6529C43.181 7.29455 44.5707 9.29322 45.4957 11.5148C46.4206 13.7364 46.8596 16.1296 46.7832 18.5344C46.9436 20.9852 46.5668 23.4415 45.679 25.732C44.7913 28.0224 43.4139 30.092 41.643 31.7962C39.8721 33.5005 37.7504 34.7984 35.4256 35.5996C33.1008 36.4008 30.6291 36.686 28.1826 36.4352H11.2731L11.6112 48.4815ZM28.5208 26.6404C32.5227 26.6404 35.0592 23.9384 35.0592 18.7033C35.0592 13.4682 32.5791 10.9914 28.5208 10.9914H11.6112V26.6404H28.5208Z" fill="white"/>
<path d="M125.827 0C143.864 0 153.22 8.61255 153.22 24.7682C153.22 40.9238 143.864 49.5927 125.827 49.5927H79.2126C61.1194 49.5927 51.8192 40.9801 51.8192 24.7682C51.8192 8.55626 61.1194 0 79.2126 0H125.827ZM123.798 39.404C135.071 39.404 141.271 34.1126 141.271 24.5993C141.271 15.0861 135.296 9.90734 123.798 9.90734H81.1855C69.9124 9.90734 63.7686 15.1424 63.7686 24.5993C63.7686 34.0563 69.7433 39.404 81.1855 39.404H123.798Z" fill="white"/>
<path d="M169.493 35.0413V48.4387H158.22V1.15393H189.954C201.227 1.15393 208.554 7.96509 208.554 17.7598C208.709 20.654 208.079 23.5364 206.729 26.1025C205.38 28.6686 203.362 30.8234 200.889 32.3394L209.287 48.2134H196.098L188.939 34.8161L169.493 35.0413ZM189.728 25.2466C190.663 25.2723 191.592 25.0939 192.451 24.7239C193.31 24.3539 194.077 23.8011 194.7 23.1043C195.322 22.4074 195.785 21.5834 196.056 20.6895C196.326 19.7955 196.398 18.8533 196.267 17.9287C196.375 17.0246 196.284 16.108 196 15.2428C195.716 14.3775 195.246 13.5847 194.623 12.9198C194 12.2549 193.24 11.734 192.394 11.3935C191.549 11.053 190.639 10.9012 189.728 10.9486H169.493V25.2466H189.728Z" fill="white"/>
<path d="M262.085 10.9486H243.823V48.4387H232.549V10.9486H214.287V1.15393H262.31L262.085 10.9486Z" fill="white"/>
<path d="M283.431 40.5016L279.372 48.4387H267.31L291.716 1.15393H304.399L329.538 48.4387H317.306L313.135 40.5016H283.431ZM298.198 12.3559L288.335 30.9883H308.175L298.198 12.3559Z" fill="white"/>
<path d="M375.571 48.4387H334.538V1.15393H345.811V38.4188H375.346L375.571 48.4387Z" fill="white"/>
</svg>
