<svg width="24" height="24" viewBox="0 0 24 24" fill="none" xmlns="http://www.w3.org/2000/svg">
<g clip-path="url(#clip0_26_283)">
<path d="M9.32805 10.068C8.9947 10.0969 8.68431 10.2498 8.45817 10.4964C8.23203 10.743 8.10657 11.0654 8.10657 11.4C8.10657 11.7346 8.23203 12.057 8.45817 12.3037C8.68431 12.5503 8.9947 12.7031 9.32805 12.732C9.49592 12.7251 9.66079 12.6851 9.8132 12.6144C9.96561 12.5436 10.1026 12.4436 10.2163 12.3198C10.3299 12.1961 10.4181 12.0512 10.4757 11.8934C10.5334 11.7355 10.5593 11.5679 10.552 11.4C10.5602 11.2319 10.535 11.0639 10.4777 10.9057C10.4204 10.7474 10.3323 10.6021 10.2184 10.4782C10.1046 10.3543 9.96722 10.2542 9.81437 10.1838C9.66153 10.1134 9.49622 10.074 9.32805 10.068ZM13.708 10.068C13.4397 10.0453 13.1708 10.104 12.9365 10.2367C12.7022 10.3693 12.5133 10.5696 12.3947 10.8113C12.2761 11.0531 12.2333 11.325 12.2718 11.5915C12.3103 11.858 12.4284 12.1066 12.6106 12.3049C12.7928 12.5031 13.0306 12.6418 13.2929 12.7026C13.5552 12.7635 13.8297 12.7437 14.0806 12.6459C14.3315 12.5482 14.547 12.3769 14.6989 12.1546C14.8508 11.9323 14.9321 11.6693 14.932 11.4C14.9393 11.2322 14.9134 11.0645 14.8557 10.9067C14.7981 10.7488 14.7099 10.6039 14.5963 10.4802C14.4826 10.3565 14.3456 10.2564 14.1932 10.1857C14.0408 10.1149 13.8759 10.075 13.708 10.068Z" fill="white"/>
<path d="M19.54 0H3.46001C3.13617 0.000786973 2.81565 0.0653515 2.51677 0.190007C2.21788 0.314663 1.94647 0.496969 1.71804 0.726515C1.4896 0.956062 1.30862 1.22835 1.18542 1.52784C1.06222 1.82734 0.999218 2.14816 1.00001 2.472V18.7C0.999218 19.0238 1.06222 19.3447 1.18542 19.6442C1.30862 19.9436 1.4896 20.2159 1.71804 20.4455C1.94647 20.675 2.21788 20.8573 2.51677 20.982C2.81565 21.1066 3.13617 21.1712 3.46001 21.172H17.068L16.432 18.952L17.968 20.38L19.42 21.72L22 24V2.472C22.0008 2.14816 21.9378 1.82734 21.8146 1.52784C21.6914 1.22835 21.5104 0.956062 21.282 0.726515C21.0535 0.496969 20.7821 0.314663 20.4832 0.190007C20.1844 0.0653515 19.8638 0.000786973 19.54 0V0ZM14.908 15.672C14.908 15.672 14.476 15.156 14.116 14.7C14.9858 14.4952 15.7552 13.9893 16.288 13.272C15.8562 13.5594 15.3933 13.7969 14.908 13.98C14.3498 14.2183 13.7659 14.3914 13.168 14.496C12.1403 14.6852 11.0863 14.6812 10.06 14.484C9.45887 14.3659 8.86976 14.1932 8.30001 13.968C7.81882 13.7842 7.35992 13.5467 6.93201 13.26C7.44554 13.9624 8.18835 14.4632 9.03201 14.676C8.67201 15.132 8.23201 15.676 8.23201 15.676C7.51919 15.6952 6.81258 15.5388 6.17437 15.2208C5.53616 14.9027 4.9859 14.4327 4.57201 13.852C4.61037 11.4179 5.20124 9.02433 6.30001 6.852C7.26643 6.09298 8.44466 5.65272 9.67201 5.592L9.79201 5.736C8.63452 6.02081 7.55416 6.55757 6.62801 7.308C6.62801 7.308 6.89201 7.164 7.33601 6.96C8.19835 6.56489 9.11767 6.3084 10.06 6.2C10.1259 6.18632 10.1928 6.17829 10.26 6.176C11.0641 6.07122 11.8779 6.06317 12.684 6.152C13.9533 6.2975 15.1817 6.69023 16.3 7.308C15.4231 6.5942 14.4047 6.07475 13.312 5.784L13.48 5.592C14.7074 5.65272 15.8856 6.09298 16.852 6.852C17.9508 9.02433 18.5416 11.4179 18.58 13.852C18.1624 14.4314 17.6096 14.9001 16.9697 15.2173C16.3297 15.5344 15.622 15.6905 14.908 15.672Z" fill="white"/>
</g>
<defs>
<clipPath id="clip0_26_283">
<rect width="24" height="24" fill="white"/>
</clipPath>
</defs>
</svg>
