<svg width="22" height="22" viewBox="0 0 22 22" fill="none" xmlns="http://www.w3.org/2000/svg">
<path fill-rule="evenodd" clip-rule="evenodd" d="M11.0454 0C4.97043 0 0 4.97043 0 11.0454C0 15.9238 3.12953 20.0658 7.54769 21.5385C8.09995 21.6306 8.28404 21.2624 8.28404 20.9862C8.28404 20.7101 8.28404 20.0658 8.28404 19.1453C5.24656 19.7897 4.60225 17.6726 4.60225 17.6726C4.14202 16.384 3.40566 16.0158 3.40566 16.0158C2.30112 15.3715 3.40566 15.3715 3.40566 15.3715C4.5102 15.4636 5.06247 16.476 5.06247 16.476C6.07497 18.1329 7.63973 17.6726 8.28404 17.3965C8.37609 16.6601 8.65222 16.1999 9.0204 15.9238C6.53519 15.6476 3.95793 14.7272 3.95793 10.4931C3.95793 9.29654 4.41816 8.28404 5.06247 7.54768C5.06247 7.1795 4.60225 6.07497 5.24656 4.60225C5.24656 4.60225 6.16701 4.32611 8.28404 5.70679C9.20449 5.43065 10.1249 5.33861 11.0454 5.33861C11.9658 5.33861 12.8863 5.43065 13.8067 5.70679C15.9238 4.23407 16.8442 4.60225 16.8442 4.60225C17.4885 6.16701 17.0283 7.27155 16.9363 7.54768C17.6726 8.28404 18.0408 9.29654 18.0408 10.4931C18.0408 14.7272 15.4636 15.6476 12.9783 15.9238C13.3465 16.292 13.7147 16.9363 13.7147 17.9488C13.7147 19.4215 13.7147 20.6181 13.7147 20.9862C13.7147 21.2624 13.8988 21.6306 14.4511 21.5385C18.8692 20.0658 21.9987 15.9238 21.9987 11.0454C22.0908 4.97043 17.1204 0 11.0454 0Z" fill="white"/>
</svg>
